<?xml version="1.0" encoding="utf-8"?>
<!-- Generator: Adobe Illustrator 16.0.3, SVG Export Plug-In . SVG Version: 6.00 Build 0)  -->
<!DOCTYPE svg PUBLIC "-//W3C//DTD SVG 1.1//EN" "http://www.w3.org/Graphics/SVG/1.1/DTD/svg11.dtd">
<svg version="1.1" id="Layer_1" xmlns="http://www.w3.org/2000/svg" xmlns:xlink="http://www.w3.org/1999/xlink" x="0px" y="0px"
	 width="113.39px" height="113.39px" viewBox="0 0 113.39 113.39" enable-background="new 0 0 113.39 113.39" xml:space="preserve">
<path fill="#EAB818" stroke="#EAB818" d="M111.39,56.914c0,30.292-24.557,54.85-54.849,54.85c-30.292,0-54.847-24.558-54.847-54.85
	S26.249,2.066,56.541,2.066C86.833,2.066,111.39,26.622,111.39,56.914z M26.017,14.931l-7.302,78.357h23.936l2.184-17.673
	c0,0,0.91-9.746,11.304-10.135c10.397-0.39,11.827,10.005,11.827,10.005l1.582,17.803h25.057l-7.383-78.357H75.786v4.808H62.638
	v-4.808H50.577v4.938H37.559v-4.938 M56.15,31.045c-6.392,0-11.575,5.182-11.575,11.575c0,6.393,5.183,11.575,11.575,11.575
	c6.394,0,11.575-5.183,11.575-11.575C67.726,36.228,62.544,31.045,56.15,31.045z"/>
</svg>
