<?xml version="1.0" encoding="utf-8"?>
<!-- Generator: Adobe Illustrator 16.0.3, SVG Export Plug-In . SVG Version: 6.00 Build 0)  -->
<!DOCTYPE svg PUBLIC "-//W3C//DTD SVG 1.1//EN" "http://www.w3.org/Graphics/SVG/1.1/DTD/svg11.dtd">
<svg version="1.1" xmlns="http://www.w3.org/2000/svg" xmlns:xlink="http://www.w3.org/1999/xlink" x="0px" y="0px"
	 width="113.386px" height="113.386px" viewBox="0 0 113.386 113.386" enable-background="new 0 0 113.386 113.386"
	 xml:space="preserve">
<g id="Layer_2">
	<rect fill="#EDC028" stroke="#EDC028" width="113.386" height="113.386"/>
</g>
<g id="Layer_3">
	<circle fill="#FFFFFF" stroke="#EAB818" cx="56.932" cy="57.5" r="52.5"/>
</g>
<g id="Layer_1">
	<g>
		<path fill="#EDC028" stroke="#EDC028" d="M111.78,57.431c0,30.292-24.557,54.85-54.85,54.85c-30.292,0-54.847-24.558-54.847-54.85
			S26.639,2.583,56.931,2.583C87.224,2.583,111.78,27.139,111.78,57.431z M26.407,15.448l-7.302,78.357h23.936l2.184-17.673
			c0,0,0.91-9.746,11.305-10.135c10.396-0.39,11.826,10.005,11.826,10.005l1.583,17.803h25.056l-7.382-78.357H76.176v4.808H63.027
			v-4.808H50.967v4.938H37.949v-4.938 M56.541,31.562c-6.393,0-11.575,5.182-11.575,11.575c0,6.393,5.182,11.575,11.575,11.575
			c6.394,0,11.575-5.183,11.575-11.575C68.115,36.744,62.935,31.562,56.541,31.562z"/>
		<path display="none" fill="#FFFFFF" d="M37.745,20.362h13.644l-0.056-5.125l11.351,0.027l0.011,4.968l13.888-0.052l-0.062-4.855
			l10.863-0.03l7.402,78.329l-24.547-0.03l-0.918-12.938c0,0,0.064-15.462-12.215-15.462S44.242,80.526,44.242,80.526L42.98,93.541
			l-24.055,0.082l7.89-78.359L37.8,15.203L37.745,20.362z"/>
		<circle display="none" fill="#EAB818" stroke="#EAB818" cx="56.477" cy="43.072" r="11.707"/>
	</g>
</g>
</svg>
