<?xml version="1.0" encoding="utf-8"?>
<!-- Generator: Adobe Illustrator 16.0.3, SVG Export Plug-In . SVG Version: 6.00 Build 0)  -->
<!DOCTYPE svg PUBLIC "-//W3C//DTD SVG 1.1//EN" "http://www.w3.org/Graphics/SVG/1.1/DTD/svg11.dtd">
<svg version="1.1" id="Layer_1" xmlns="http://www.w3.org/2000/svg" xmlns:xlink="http://www.w3.org/1999/xlink" x="0px" y="0px"
	 width="113.39px" height="113.39px" viewBox="0 0 113.39 113.39" enable-background="new 0 0 113.39 113.39" xml:space="preserve">
<g>
	<path fill-rule="evenodd" clip-rule="evenodd" fill="#E9B81C" d="M53.56,1.254c2.08,0,4.16,0,6.24,0
		c0.204,0.079,0.402,0.202,0.613,0.23C62.785,1.807,65.181,2,67.529,2.444c22.632,4.287,40.612,23.099,43.906,45.874
		c0.207,1.435,0.455,2.864,0.685,4.296c0,2.64,0,5.28,0,7.92c-0.078,0.21-0.191,0.413-0.229,0.63
		c-0.573,3.296-0.901,6.655-1.74,9.882c-5.728,22.029-25.228,38.54-47.833,40.65c-1.083,0.101-2.158,0.29-3.237,0.438
		c-1.6,0-3.2,0-4.8,0c-0.284-0.082-0.563-0.198-0.853-0.241c-3.077-0.458-6.212-0.666-9.224-1.389
		c-30.011-7.204-48.12-36.417-41.289-66.479C7.906,22.063,26.426,5.113,48.898,1.938C50.454,1.718,52.006,1.482,53.56,1.254z
		 M94.217,92.407c-2.431-25.782-4.851-51.458-7.267-77.092c-3.581,0-6.958,0-10.454,0c0,1.596,0,3.101,0,4.623
		c-4.772,0-9.422,0-14.192,0c0-1.603,0-3.106,0-4.638c-3.698,0-7.275,0-10.995,0c0,1.653,0,3.232,0,4.79c-4.755,0-9.366,0-14.11,0
		c0-1.837,0-3.572,0-5.267c-3.552,0-6.967,0-10.416,0c-2.413,25.9-4.817,51.709-7.228,77.58c7.669,0,15.244,0,22.874,0
		c0.04-0.294,0.072-0.523,0.101-0.754c0.708-5.628,1.315-11.271,2.151-16.88c0.926-6.211,5.897-10.166,12.356-10.076
		c5.98,0.084,10.774,4.264,11.603,10.253c0.371,2.688,0.512,5.409,0.754,8.116c0.278,3.096,0.554,6.192,0.835,9.346
		C78.218,92.407,86.116,92.407,94.217,92.407z"/>
	<path fill-rule="evenodd" clip-rule="evenodd" fill="#E9B81E" d="M68.44,42.442c-0.01,6.638-5.414,12.041-12.052,12.046
		c-6.663,0.007-12.164-5.511-12.107-12.143c0.057-6.655,5.459-12.038,12.084-12.039C63.067,30.307,68.45,35.715,68.44,42.442z"/>
</g>
</svg>
